<svg xmlns="http://www.w3.org/2000/svg" viewBox="0 0 982.5 120.27"><defs><style>.cls-1{fill:none;stroke:#000;stroke-linecap:round;stroke-linejoin:round;stroke-width:8px;}</style></defs><g id="Layer_2" data-name="Layer 2"><g id="Layer_1-2" data-name="Layer 1"><path class="cls-1" d="M680.16,53.57c2.14-.58,3.21,1,4.58,3.38,2.87,5,5.36,10.07,6.09,16.62a36.08,36.08,0,0,1-1.36,13c-2.5,9.87-6.32,18.49-11.74,25.46-4.78,6.13-8.83,6.25-10.46-4-2.75-17.35-1.51-34,8.41-47a22.08,22.08,0,0,0,4.18-7.54c-2.36-6-7-7.75-11.07-10.39-13-8.34-26.73-12.52-40.59-16-9.26-2.31-18.56-4.28-27.88-6-6-1.09-12.15-1.39-18.23-2.08-8.6-1-17.2-2-25.8-3-.46,0-.92,0-1.38,0-32.91-1.73-65.84-.82-98.76-1-11.13,0-22.25.8-33.37,1.26-6.42.27-12.87.08-19.27.76-10.55,1.1-21.1,1.51-31.66,2.09-9,.5-17.89,1.39-26.84,2-8.37.56-16.74,1.39-25.12,2-7.68.57-15.36,1.41-23.05,2s-15.37,1.4-23.06,2c-7.22.57-14.45,1.32-21.68,2-11.35,1.05-22.71,2-34.06,3-11.59,1-23.17,2.09-34.76,3-8.6.66-17.2,1.36-25.8,2-9.07.7-18.13,1.34-27.19,2-11.35.81-22.72,1.19-34.06,2.12-7.24.6-14.47.27-21.69.75-21.67,1.45-43.35,2.05-65,2-1.84,0-3.67-.15-5.51-.24"/><path class="cls-1" d="M978.5,8.57c-12.5-.16-25,.12-37.5-.62-12.74-.77-25.48-1.23-38.19-2.15-7.47-.54-15,.18-22.37-.83C867,3.14,853.59,4.55,840.17,4.1c-12.41-.42-24.81.81-37.15,2.16-17.93,2-35.79,5.29-53.35,11.32-20.66,7.08-41,15.34-60.22,29-2.39,1.7-4.81,3.38-6.19,7"/></g></g></svg>