<svg xmlns="http://www.w3.org/2000/svg" viewBox="0 0 1424 120.27"><defs><style>.cls-1{fill:none;stroke:#000;stroke-linecap:round;stroke-linejoin:round;stroke-width:8px;}</style></defs><g id="Layer_2" data-name="Layer 2"><g id="Layer_1-2" data-name="Layer 1"><path class="cls-1" d="M986.5,53.57c3.11-.58,4.66,1,6.65,3.38,4.17,5,7.79,10.07,8.84,16.62.73,4.54-.41,8.78-2,13A61.89,61.89,0,0,1,983,112c-6.94,6.13-12.84,6.25-15.2-4-4-17.35-2.19-34,12.21-47,2.29-2.06,4.6-4.15,6.09-7.54-3.44-6-10.12-7.75-16.09-10.39-18.83-8.34-38.84-12.52-59-16q-20.18-3.46-40.5-6c-8.78-1.09-17.66-1.39-26.49-2.08-12.5-1-25-2-37.5-3-.66,0-1.33,0-2,0-47.82-1.73-95.67-.82-143.5-1-16.17,0-32.34.8-48.49,1.26-9.33.27-18.7.08-28,.76-15.32,1.1-30.65,1.51-46,2.09-13,.5-26,1.39-39,2-12.17.56-24.33,1.39-36.5,2-11.17.57-22.33,1.41-33.5,2s-22.33,1.4-33.5,2c-10.5.57-21,1.32-31.5,2-16.5,1.05-33,2-49.5,3-16.83,1-33.66,2.09-50.5,3-12.5.66-25,1.36-37.5,2q-19.75,1.05-39.5,2c-16.5.81-33,1.19-49.5,2.12-10.52.6-21,.27-31.51.75-31.48,1.45-63,2.05-94.5,2-2.67,0-5.33-.15-8-.24"/><path class="cls-1" d="M1420,8.57c-18.17-.16-36.35.12-54.49-.62-18.5-.77-37-1.23-55.5-2.15-10.85-.54-21.72.18-32.5-.83-19.5-1.83-39-.42-58.51-.87-18-.42-36,.81-54,2.16-26,2-52,5.29-77.51,11.32-30,7.08-59.66,15.34-87.5,29-3.48,1.7-7,3.38-9,7"/></g></g></svg>