<svg xmlns="http://www.w3.org/2000/svg" viewBox="0 0 881 164.15"><defs><style>.cls-1{fill:none;stroke:#000;stroke-linecap:round;stroke-linejoin:round;stroke-width:8px;}</style></defs><g id="Layer_2" data-name="Layer 2"><g id="Layer_1-2" data-name="Layer 1"><path class="cls-1" d="M609.74,73c1.91-.81,2.87,1.38,4.1,4.7,2.57,6.95,4.8,14,5.45,23.12a76.58,76.58,0,0,1-1.22,18.09c-2.24,13.74-5.66,25.72-10.51,35.41-4.28,8.53-7.91,8.69-9.37-5.6-2.47-24.14-1.35-47.27,7.53-65.32a37.81,37.81,0,0,0,3.75-10.49c-2.12-8.29-6.24-10.78-9.92-14.45C587.94,46.82,575.6,41,563.18,36.18c-8.29-3.23-16.62-6-25-8.32-5.41-1.53-10.88-1.94-16.33-2.9-7.71-1.37-15.41-2.78-23.12-4.16-.41-.07-.82,0-1.23,0-29.49-2.4-59-1.15-88.47-1.34-10-.06-19.94,1.12-29.9,1.76-5.75.37-11.52.11-17.26,1.05-9.45,1.54-18.91,2.1-28.36,2.91-8,.69-16,1.94-24.05,2.78-7.5.79-15,1.93-22.5,2.79-6.88.78-13.76,2-20.65,2.76s-13.77,2-20.66,2.79c-6.47.8-12.94,1.85-19.42,2.77-10.17,1.45-20.34,2.79-30.52,4.18-10.37,1.41-20.75,2.9-31.13,4.15-7.71.93-15.41,1.9-23.12,2.83-8.12,1-16.23,1.86-24.35,2.76-10.18,1.12-20.36,1.64-30.52,3-6.49.83-13,.36-19.43,1A538.16,538.16,0,0,1,8.93,59.72c-1.64,0-3.29-.22-4.93-.33"/><path class="cls-1" d="M877,10.36c-11.2-.23-22.41.17-33.6-.87-11.4-1.06-22.82-1.7-34.21-3-6.69-.75-13.4.26-20-1.15-12-2.55-24-.58-36.07-1.22-11.12-.58-22.23,1.13-33.29,3C703.73,9.89,687.73,14.51,672,22.88c-18.51,9.86-36.78,21.34-54,40.34-2.14,2.37-4.32,4.7-5.55,9.73"/></g></g></svg>